# xmcd
#
# Track frame offsets: 
#        150
#        12024
#        35572
#        69462
#        88225
#        114659
#        136629
#        156113
#        199481
#        222094
#        232915
#
# Disc length: 3587 seconds
#
# Revision: 0
# Processed by: cddbd v1.5.2PL0 Copyright (c) Steve Scherf et al.
# Submitted via: ExactAudioCopy v0.95b4
#
DISCID=900e010b
DTITLE=Paul Mayasich With Benderheads - I Love Your Soup
DYEAR=2005
DGENRE=Blues
TTITLE0=I Love Your Soup
TTITLE1=Tell Me
TTITLE2=Never Make a Move Too Soon
TTITLE3=I Can't Be Satisfied
TTITLE4=Devil's Face
TTITLE5=Texas Toast
TTITLE6=Watch Out Boy
TTITLE7=Arms of the Blues
TTITLE8=Good Man Blues
TTITLE9=Amazing Grace
TTITLE10=Black Coffee
EXTD=
EXTT0=
EXTT1=
EXTT2=
EXTT3=
EXTT4=
EXTT5=
EXTT6=
EXTT7=
EXTT8=
EXTT9=
EXTT10=
PLAYORDER=
